<svg xmlns="http://www.w3.org/2000/svg" width="25.831" height="25.831" viewBox="0 0 25.831 25.831">
  <path id="download-solid" d="M10.9,0h4.036a1.208,1.208,0,0,1,1.211,1.211V9.687h4.425a1.007,1.007,0,0,1,.711,1.72l-7.674,7.679a.977.977,0,0,1-1.377,0L4.546,11.407a1.007,1.007,0,0,1,.711-1.72h4.43V1.211A1.208,1.208,0,0,1,10.9,0ZM25.831,18.97V24.62a1.208,1.208,0,0,1-1.211,1.211H1.211A1.208,1.208,0,0,1,0,24.62V18.97a1.208,1.208,0,0,1,1.211-1.211h7.4l2.472,2.472a2.585,2.585,0,0,0,3.663,0l2.472-2.472h7.4A1.208,1.208,0,0,1,25.831,18.97Zm-6.256,4.44a1.009,1.009,0,1,0-1.009,1.009A1.012,1.012,0,0,0,19.575,23.409Zm3.229,0a1.009,1.009,0,1,0-1.009,1.009A1.012,1.012,0,0,0,22.8,23.409Z" transform="translate(0)" fill="#999"/>
</svg>
