<svg xmlns="http://www.w3.org/2000/svg" width="22.943" height="17.208" viewBox="0 0 22.943 17.208">
  <path id="envelope-solid" d="M22.509,69.682a.27.27,0,0,1,.435.211v9.164a2.151,2.151,0,0,1-2.151,2.151H2.151A2.152,2.152,0,0,1,0,79.057V69.9a.268.268,0,0,1,.435-.211c1,.78,2.335,1.77,6.905,5.091.946.69,2.541,2.142,4.132,2.133,1.6.013,3.226-1.47,4.136-2.133C20.178,71.457,21.5,70.462,22.509,69.682Zm-11.037,5.79c1.04.018,2.536-1.308,3.289-1.855,5.946-4.315,6.4-4.692,7.77-5.767A1.072,1.072,0,0,0,22.943,67v-.851A2.151,2.151,0,0,0,20.792,64H2.151A2.151,2.151,0,0,0,0,66.151V67a1.079,1.079,0,0,0,.412.847c1.371,1.071,1.824,1.452,7.77,5.767C8.935,74.163,10.432,75.49,11.472,75.472Z" transform="translate(0 -64)" fill="#5d5d5d"/>
</svg>
