<svg xmlns="http://www.w3.org/2000/svg" width="25.299" height="24.667" viewBox="0 0 25.299 24.667">
  <path id="github-brands_1_" data-name="github-brands (1)" d="M8.462,27.862c0,.1-.117.184-.265.184-.168.015-.286-.066-.286-.184,0-.1.117-.184.265-.184C8.329,27.663,8.462,27.744,8.462,27.862Zm-1.586-.23c-.036.1.066.219.219.25a.239.239,0,0,0,.316-.1c.031-.1-.066-.219-.219-.265A.262.262,0,0,0,6.876,27.632Zm2.254-.087c-.148.036-.25.133-.235.25.015.1.148.168.3.133s.25-.133.235-.235S9.278,27.53,9.13,27.546ZM12.486,8A12.231,12.231,0,0,0,0,20.445a12.788,12.788,0,0,0,8.645,12.2c.653.117.882-.286.882-.617,0-.316-.015-2.061-.015-3.132,0,0-3.57.765-4.32-1.52,0,0-.581-1.484-1.418-1.867,0,0-1.168-.8.082-.785a2.692,2.692,0,0,1,1.969,1.316,2.7,2.7,0,0,0,3.718,1.066,2.835,2.835,0,0,1,.816-1.719c-2.851-.316-5.728-.729-5.728-5.636a3.866,3.866,0,0,1,1.2-3,4.819,4.819,0,0,1,.133-3.463c1.066-.332,3.519,1.377,3.519,1.377a12.05,12.05,0,0,1,6.406,0s2.453-1.714,3.519-1.377a4.817,4.817,0,0,1,.133,3.463,3.965,3.965,0,0,1,1.316,3c0,4.922-3,5.315-5.855,5.636a3.016,3.016,0,0,1,.867,2.367c0,1.719-.015,3.846-.015,4.264,0,.332.235.734.882.617A12.67,12.67,0,0,0,25.3,20.445,12.507,12.507,0,0,0,12.486,8ZM4.958,25.592c-.066.051-.051.168.036.265.082.082.2.117.265.051.066-.051.051-.168-.036-.265C5.141,25.561,5.024,25.526,4.958,25.592Zm-.551-.413c-.036.066.015.148.117.2a.152.152,0,0,0,.219-.036c.036-.066-.015-.148-.117-.2C4.524,25.113,4.443,25.128,4.407,25.179Zm1.653,1.816c-.082.066-.051.219.066.316.117.117.265.133.332.051.066-.066.036-.219-.066-.316C6.279,26.928,6.126,26.913,6.059,26.995Zm-.581-.75c-.082.051-.082.184,0,.3s.219.168.286.117a.233.233,0,0,0,0-.316c-.071-.117-.2-.168-.286-.1Z" transform="translate(0 -8)" fill="#585858"/>
</svg>
