<svg id="Layer_1" data-name="Layer 1" xmlns="http://www.w3.org/2000/svg" viewBox="0 0 23.92 23.32"><defs><style>.cls-1{fill:#585858;}</style></defs><title>github</title><path id="github-brands" class="cls-1" d="M8.08,18.78c0,.09-.11.17-.25.17s-.27-.06-.27-.17.11-.17.25-.17S8.08,18.67,8.08,18.78Zm-1.5-.22c0,.1.06.21.21.24a.23.23,0,0,0,.3-.1c0-.09-.07-.2-.21-.25A.26.26,0,0,0,6.58,18.56Zm2.13-.08a.24.24,0,0,0-.22.24c0,.09.14.16.28.12s.24-.12.23-.22-.15-.15-.29-.14ZM11.88,0A11.57,11.57,0,0,0,.08,11.32v.45A12.08,12.08,0,0,0,8.25,23.3c.62.11.84-.27.84-.58s0-1.95,0-3c0,0-3.37.72-4.08-1.44,0,0-.55-1.4-1.34-1.76,0,0-1.11-.76.08-.75a2.57,2.57,0,0,1,1.86,1.25A2.55,2.55,0,0,0,9,18.1l.06,0a2.71,2.71,0,0,1,.77-1.63c-2.69-.3-5.41-.69-5.41-5.33A3.63,3.63,0,0,1,5.59,8.28,4.58,4.58,0,0,1,5.72,5c1-.31,3.33,1.3,3.33,1.3a11.5,11.5,0,0,1,6,0S17.42,4.68,18.43,5a4.53,4.53,0,0,1,.12,3.28,3.73,3.73,0,0,1,1.25,2.83c0,4.66-2.84,5-5.54,5.33a2.83,2.83,0,0,1,.82,2.24c0,1.62,0,3.63,0,4s.22.69.83.58A12,12,0,0,0,24,11.77,11.83,11.83,0,0,0,12.12,0ZM4.77,16.63c-.06.05,0,.16,0,.25s.19.12.25.05,0-.16,0-.25S4.83,16.57,4.77,16.63Zm-.52-.39c0,.07,0,.14.11.19a.14.14,0,0,0,.2,0h0c0-.06,0-.14-.11-.19A.18.18,0,0,0,4.25,16.24ZM5.81,18c-.08.06,0,.21.06.3s.25.13.32,0,0-.21-.07-.3-.25-.13-.31-.05Zm-.55-.71c-.08.05-.08.18,0,.29s.21.15.27.11a.22.22,0,0,0,0-.3c-.07-.11-.19-.16-.27-.1Z" transform="translate(-0.08 0)"/></svg>