<svg xmlns="http://www.w3.org/2000/svg" xmlns:xlink="http://www.w3.org/1999/xlink" id="Layer_1" x="0px" y="0px" style="enable-background:new 0 0 24 24" version="1.1" viewBox="0 0 24 24" xml:space="preserve"><style type="text/css">.st0{fill:#585858;}</style><path id="github-brands_1_" d="M8,19.1c0,0.1-0.1,0.2-0.3,0.2c-0.2,0-0.3-0.1-0.3-0.2c0-0.1,0.1-0.2,0.3-0.2C7.9,18.9,8,19,8,19.1z M6.5,18.9c0,0.1,0.1,0.2,0.2,0.2c0.1,0.1,0.2,0,0.3-0.1c0-0.1-0.1-0.2-0.2-0.3C6.7,18.8,6.6,18.8,6.5,18.9zM8.7,18.8c-0.1,0-0.2,0.1-0.2,0.2c0,0.1,0.1,0.2,0.3,0.1C8.9,19.1,9,19.1,9,19C8.9,18.9,8.8,18.8,8.7,18.8L8.7,18.8z M11.9,0.3C5.5,0.2,0.2,5.3,0,11.7c0,0.1,0,0.3,0,0.4c0,5.2,3.3,9.8,8.2,11.5c0.6,0.1,0.8-0.3,0.8-0.6c0-0.3,0-1.9,0-3c0,0-3.4,0.7-4.1-1.4c0,0-0.5-1.4-1.3-1.8c0,0-1.1-0.8,0.1-0.7c0.8,0.1,1.5,0.6,1.9,1.2c0.7,1.2,2.2,1.7,3.5,1c0,0,0,0,0.1,0c0.1-0.6,0.3-1.2,0.8-1.6c-2.7-0.3-5.4-0.7-5.4-5.3c-0.1-1.1,0.4-2.1,1.1-2.8C5.2,7.5,5.2,6.4,5.7,5.3C6.7,5,9,6.6,9,6.6c2-0.5,4.1-0.5,6.1,0c0,0,2.3-1.6,3.3-1.3c0.4,1,0.5,2.2,0.1,3.3c0.8,0.7,1.3,1.8,1.2,2.8c0,4.7-2.8,5-5.5,5.3c0.6,0.6,0.9,1.4,0.8,2.2c0,1.6,0,3.6,0,4c0,0.3,0.2,0.7,0.8,0.6C20.8,22,24,17.3,24,12.1c0-6.5-5.3-11.8-11.9-11.8C12,0.3,11.9,0.3,11.9,0.3z M4.7,17c-0.1,0,0,0.2,0,0.3c0.1,0.1,0.2,0.1,0.3,0c0.1,0,0-0.2,0-0.3C4.9,16.9,4.8,16.9,4.7,17z M4.2,16.6c0,0.1,0,0.1,0.1,0.2c0.1,0,0.2,0,0.2,0c0,0,0,0,0,0c0-0.1,0-0.1-0.1-0.2C4.3,16.5,4.2,16.5,4.2,16.6z M5.8,18.3c-0.1,0.1,0,0.2,0.1,0.3c0.1,0.1,0.3,0.1,0.3,0c0.1-0.1,0-0.2-0.1-0.3C6,18.2,5.8,18.2,5.8,18.3L5.8,18.3z M5.2,17.6c-0.1,0-0.1,0.2,0,0.3C5.3,18,5.4,18,5.5,18c0.1-0.1,0.1-0.2,0-0.3C5.4,17.6,5.3,17.5,5.2,17.6L5.2,17.6z" class="st0"/></svg>