<svg xmlns="http://www.w3.org/2000/svg" width="349.031" height="68.81" viewBox="0 0 349.031 68.81">
  <g id="Group_6" data-name="Group 6" transform="translate(-584.346 -362.279)">
    <circle id="Ellipse_10" data-name="Ellipse 10" cx="5.669" cy="5.669" r="5.669" transform="translate(584.346 362.696)" fill="rgba(71,71,71,0.3)"/>
    <circle id="Ellipse_11" data-name="Ellipse 11" cx="5.669" cy="5.669" r="5.669" transform="translate(615.085 362.696)" fill="rgba(71,71,71,0.3)"/>
    <circle id="Ellipse_12" data-name="Ellipse 12" cx="5.669" cy="5.669" r="5.669" transform="translate(645.824 362.696)" fill="rgba(71,71,71,0.3)"/>
    <circle id="Ellipse_13" data-name="Ellipse 13" cx="5.669" cy="5.669" r="5.669" transform="translate(676.562 362.696)" fill="rgba(71,71,71,0.3)"/>
    <circle id="Ellipse_14" data-name="Ellipse 14" cx="5.669" cy="5.669" r="5.669" transform="translate(707.301 362.696)" fill="rgba(71,71,71,0.3)"/>
    <circle id="Ellipse_15" data-name="Ellipse 15" cx="5.669" cy="5.669" r="5.669" transform="translate(738.04 362.696)" fill="rgba(71,71,71,0.3)"/>
    <circle id="Ellipse_16" data-name="Ellipse 16" cx="5.669" cy="5.669" r="5.669" transform="translate(584.346 391.224)" fill="rgba(71,71,71,0.3)"/>
    <circle id="Ellipse_17" data-name="Ellipse 17" cx="5.669" cy="5.669" r="5.669" transform="translate(615.085 391.224)" fill="rgba(71,71,71,0.3)"/>
    <circle id="Ellipse_18" data-name="Ellipse 18" cx="5.669" cy="5.669" r="5.669" transform="translate(645.824 391.224)" fill="rgba(71,71,71,0.3)"/>
    <circle id="Ellipse_19" data-name="Ellipse 19" cx="5.669" cy="5.669" r="5.669" transform="translate(676.562 391.224)" fill="rgba(71,71,71,0.3)"/>
    <circle id="Ellipse_20" data-name="Ellipse 20" cx="5.669" cy="5.669" r="5.669" transform="translate(707.301 391.224)" fill="rgba(71,71,71,0.3)"/>
    <circle id="Ellipse_21" data-name="Ellipse 21" cx="5.669" cy="5.669" r="5.669" transform="translate(738.04 391.224)" fill="rgba(71,71,71,0.3)"/>
    <circle id="Ellipse_22" data-name="Ellipse 22" cx="5.669" cy="5.669" r="5.669" transform="translate(584.346 419.751)" fill="rgba(71,71,71,0.3)"/>
    <circle id="Ellipse_23" data-name="Ellipse 23" cx="5.669" cy="5.669" r="5.669" transform="translate(615.085 419.751)" fill="rgba(71,71,71,0.3)"/>
    <circle id="Ellipse_24" data-name="Ellipse 24" cx="5.669" cy="5.669" r="5.669" transform="translate(645.824 419.751)" fill="rgba(71,71,71,0.3)"/>
    <circle id="Ellipse_25" data-name="Ellipse 25" cx="5.669" cy="5.669" r="5.669" transform="translate(676.562 419.751)" fill="rgba(71,71,71,0.3)"/>
    <circle id="Ellipse_26" data-name="Ellipse 26" cx="5.669" cy="5.669" r="5.669" transform="translate(707.301 419.751)" fill="rgba(71,71,71,0.3)"/>
    <circle id="Ellipse_27" data-name="Ellipse 27" cx="5.669" cy="5.669" r="5.669" transform="translate(738.04 419.751)" fill="rgba(71,71,71,0.3)"/>
    <circle id="Ellipse_28" data-name="Ellipse 28" cx="5.669" cy="5.669" r="5.669" transform="translate(768.346 362.279)" fill="rgba(71,71,71,0.3)"/>
    <circle id="Ellipse_29" data-name="Ellipse 29" cx="5.669" cy="5.669" r="5.669" transform="translate(799.085 362.279)" fill="rgba(71,71,71,0.3)"/>
    <circle id="Ellipse_30" data-name="Ellipse 30" cx="5.669" cy="5.669" r="5.669" transform="translate(829.824 362.279)" fill="rgba(71,71,71,0.3)"/>
    <circle id="Ellipse_31" data-name="Ellipse 31" cx="5.669" cy="5.669" r="5.669" transform="translate(860.562 362.279)" fill="rgba(71,71,71,0.3)"/>
    <circle id="Ellipse_32" data-name="Ellipse 32" cx="5.669" cy="5.669" r="5.669" transform="translate(891.301 362.279)" fill="rgba(71,71,71,0.3)"/>
    <circle id="Ellipse_33" data-name="Ellipse 33" cx="5.669" cy="5.669" r="5.669" transform="translate(922.04 362.279)" fill="rgba(71,71,71,0.3)"/>
    <circle id="Ellipse_34" data-name="Ellipse 34" cx="5.669" cy="5.669" r="5.669" transform="translate(768.346 390.806)" fill="rgba(71,71,71,0.3)"/>
    <circle id="Ellipse_35" data-name="Ellipse 35" cx="5.669" cy="5.669" r="5.669" transform="translate(799.085 390.806)" fill="rgba(71,71,71,0.3)"/>
    <circle id="Ellipse_36" data-name="Ellipse 36" cx="5.669" cy="5.669" r="5.669" transform="translate(829.824 390.806)" fill="rgba(71,71,71,0.3)"/>
    <circle id="Ellipse_37" data-name="Ellipse 37" cx="5.669" cy="5.669" r="5.669" transform="translate(860.562 390.806)" fill="rgba(71,71,71,0.3)"/>
    <circle id="Ellipse_38" data-name="Ellipse 38" cx="5.669" cy="5.669" r="5.669" transform="translate(891.301 390.806)" fill="rgba(71,71,71,0.3)"/>
    <circle id="Ellipse_39" data-name="Ellipse 39" cx="5.669" cy="5.669" r="5.669" transform="translate(922.04 390.806)" fill="rgba(71,71,71,0.3)"/>
    <circle id="Ellipse_40" data-name="Ellipse 40" cx="5.669" cy="5.669" r="5.669" transform="translate(768.346 419.334)" fill="rgba(71,71,71,0.3)"/>
    <circle id="Ellipse_41" data-name="Ellipse 41" cx="5.669" cy="5.669" r="5.669" transform="translate(799.085 419.334)" fill="rgba(71,71,71,0.3)"/>
    <circle id="Ellipse_42" data-name="Ellipse 42" cx="5.669" cy="5.669" r="5.669" transform="translate(829.824 419.334)" fill="rgba(71,71,71,0.3)"/>
    <circle id="Ellipse_43" data-name="Ellipse 43" cx="5.669" cy="5.669" r="5.669" transform="translate(860.562 419.334)" fill="rgba(71,71,71,0.3)"/>
    <circle id="Ellipse_44" data-name="Ellipse 44" cx="5.669" cy="5.669" r="5.669" transform="translate(891.301 419.334)" fill="rgba(71,71,71,0.3)"/>
    <circle id="Ellipse_45" data-name="Ellipse 45" cx="5.669" cy="5.669" r="5.669" transform="translate(922.04 419.334)" fill="rgba(71,71,71,0.3)"/>
  </g>
</svg>
