<svg xmlns="http://www.w3.org/2000/svg" class="feather" width="24" height="24" viewBox="0 0 24 24" style="enable-background:new 0 0 24 24;" xml:space="preserve"><style type="text/css">.st0{fill:#585858;}</style><path id="instagram-brands" class="st0" d="M12,5.9c-3.4,0-6.2,2.8-6.2,6.2c0,3.4,2.8,6.2,6.2,6.2s6.2-2.8,6.2-6.2C18.2,8.6,15.4,5.9,12,5.9C12,5.9,12,5.9,12,5.9z M12,16c-2.2,0-4-1.8-4-4s1.8-4,4-4s4,1.8,4,4C16,14.2,14.2,16,12,16L12,16zM19.9,5.6c0,0.8-0.6,1.4-1.4,1.4C17.6,7,17,6.4,17,5.6c0-0.8,0.6-1.4,1.4-1.4c0,0,0,0,0,0C19.2,4.2,19.9,4.8,19.9,5.6L19.9,5.6zM24,7.1c0-1.9-0.7-3.7-1.9-5c-1.4-1.3-3.2-2-5-1.9C15,0,9,0,7.1,0.1C5.2,0,3.4,0.7,2,2c-1.3,1.4-2,3.2-1.9,5C0,9,0,15,0.1,17c0,1.9,0.7,3.7,1.9,5c1.4,1.3,3.2,2,5,1.9c2,0.1,7.9,0.1,9.9,0c1.9,0,3.7-0.7,5-1.9c1.3-1.4,2-3.2,1.9-5C24.1,15,24.1,9,24,7.1zM21.4,19.1c-0.4,1-1.2,1.9-2.3,2.3c-1.6,0.6-5.3,0.5-7.1,0.5S6.5,22,4.9,21.4c-1-0.4-1.9-1.2-2.3-2.3C2,17.5,2.2,13.8,2.2,12S2,6.5,2.6,4.9c0.4-1,1.2-1.9,2.3-2.3C6.5,2,10.3,2.2,12,2.2s5.5-0.1,7.1,0.5c1,0.4,1.9,1.2,2.3,2.3c0.6,1.6,0.5,5.3,0.5,7.1S22,17.5,21.4,19.1z"/></svg>