<svg xmlns="http://www.w3.org/2000/svg" width="24.083" height="24.078" viewBox="0 0 24.083 24.078">
  <path id="instagram-brands" d="M11.969,37.691a6.173,6.173,0,1,0,6.173,6.173A6.163,6.163,0,0,0,11.969,37.691Zm0,10.187a4.013,4.013,0,1,1,4.013-4.013A4.021,4.021,0,0,1,11.969,47.877Zm7.866-10.439A1.44,1.44,0,1,1,18.4,36,1.437,1.437,0,0,1,19.835,37.438ZM23.924,38.9a7.126,7.126,0,0,0-1.945-5.045,7.172,7.172,0,0,0-5.045-1.945C14.946,31.8,8.987,31.8,7,31.91a7.162,7.162,0,0,0-5.045,1.94A7.149,7.149,0,0,0,.01,38.894C-.1,40.882-.1,46.84.01,48.828a7.126,7.126,0,0,0,1.945,5.045A7.182,7.182,0,0,0,7,55.818c1.988.113,7.946.113,9.934,0a7.126,7.126,0,0,0,5.045-1.945,7.173,7.173,0,0,0,1.945-5.045C24.036,46.84,24.036,40.887,23.924,38.9ZM21.355,50.961a4.063,4.063,0,0,1-2.289,2.289c-1.585.629-5.346.484-7.1.484s-5.518.14-7.1-.484a4.063,4.063,0,0,1-2.289-2.289c-.629-1.585-.484-5.346-.484-7.1s-.14-5.518.484-7.1a4.063,4.063,0,0,1,2.289-2.289c1.585-.629,5.346-.484,7.1-.484s5.518-.14,7.1.484a4.063,4.063,0,0,1,2.289,2.289c.629,1.585.484,5.346.484,7.1S21.984,49.382,21.355,50.961Z" transform="translate(0.075 -31.825)" fill="#585858"/>
</svg>
