<svg id="Layer_1" data-name="Layer 1" xmlns="http://www.w3.org/2000/svg" viewBox="0 0 193.74 37.98"><defs><style>.cls-1{isolation:isolate;}.cls-2{fill:#585858;}</style></defs><title>Logo option_2</title><g id="Logo_option" data-name="Logo option"><g id="Ali_Tawash" data-name="Ali Tawash" class="cls-1"><g class="cls-1"><path class="cls-2" d="M19.82,34.15l-3.41,8.36a1.34,1.34,0,0,1-.74.74,1.32,1.32,0,0,1-1.79-.71,1.32,1.32,0,0,1,0-1l2.9-7.19c-1.05,0-2.1.05-3.16.05a1.34,1.34,0,0,1-1-.41,1.32,1.32,0,0,1-.41-1,1.36,1.36,0,0,1,.41-1,1.33,1.33,0,0,1,1-.4c1.4,0,2.84,0,4.34-.11l5.15-12.8c.41-.91.94-2.26,1.6-4s1.08-2.85,1.25-3.26L27,8.59A3.35,3.35,0,0,1,27.27,8a1.21,1.21,0,0,1,.87-.66,1.32,1.32,0,0,1,1.32.31,2.21,2.21,0,0,1,.62,1.12,8.73,8.73,0,0,1,.15,1c0,.61.07,1.39.1,2.34v1.53q0,.83,0,1.41c0,.39,0,.62,0,.68s0,1,0,2.63,0,2.88,0,3.8.07,2.16.16,3.72a40.1,40.1,0,0,0,.43,4.24l2.09-.41a1.37,1.37,0,0,1,1,.23,1.35,1.35,0,0,1,.58.89,1.37,1.37,0,0,1-.23,1,1.35,1.35,0,0,1-.89.58l-2.09.36A12.74,12.74,0,0,0,33.08,37a4,4,0,0,0,4,2,1.4,1.4,0,0,1,1,.31,1.24,1.24,0,0,1,.51.91,1.43,1.43,0,0,1-.3,1,1.32,1.32,0,0,1-.92.51,6.6,6.6,0,0,1-6.58-3.17,15.36,15.36,0,0,1-2.19-5.4Q24.11,33.84,19.82,34.15ZM21,31.29q3.51-.25,7.14-.82c-.17-1.29-.31-2.76-.41-4.41s-.16-2.95-.18-3.9,0-2.25,0-3.9,0-2.51,0-2.58v-.76l-1.89,4.9Z" transform="translate(-12.22 -5.54)"/><path class="cls-2" d="M40.33,34.86a9.84,9.84,0,0,0,.91,3.77,3.83,3.83,0,0,0,1.94,1.79,3.11,3.11,0,0,0,2.55-.26,6,6,0,0,0,1.89-2.34,20.24,20.24,0,0,0,1.88-7.19,1.28,1.28,0,0,1,.52-.92,1.43,1.43,0,0,1,1-.31,1.31,1.31,0,0,1,.94.51,1.43,1.43,0,0,1,.31,1A23.18,23.18,0,0,1,50.17,39a8.06,8.06,0,0,1-2.91,3.42,5.81,5.81,0,0,1-4.89.61A6.12,6.12,0,0,1,38.85,40q-2.1-3.52-1.07-11.12a54.8,54.8,0,0,1,2.39-10.61,39.33,39.33,0,0,1,2.09-5.3A15.22,15.22,0,0,1,44,10.07a4.86,4.86,0,0,1,2.7-1.78,3.13,3.13,0,0,1,3,1,4.47,4.47,0,0,1,1,2.4,10.17,10.17,0,0,1-.31,4.23,42.1,42.1,0,0,1-9.59,18.61A.89.89,0,0,1,40.33,34.86Zm-.62-4.28a39.44,39.44,0,0,0,6.23-14.23,8.67,8.67,0,0,0,.15-3,1.77,1.77,0,0,0-.26-.92.3.3,0,0,0-.3-.05c-.17,0-.43.27-.77.71a10.13,10.13,0,0,0-1.22,2.14,32.2,32.2,0,0,0-1.68,4.6,54.31,54.31,0,0,0-2,9.43C39.8,29.69,39.75,30.13,39.71,30.58Z" transform="translate(-12.22 -5.54)"/><path class="cls-2" d="M53.33,26.29c0,.27-.21,1.33-.51,3.16s-.53,3.2-.66,4.49a27.66,27.66,0,0,0-.26,4,4.26,4.26,0,0,0,.41,2,1.18,1.18,0,0,0,.51.41,1,1,0,0,0,.46-.21,9.14,9.14,0,0,0,2.19-3.06,65,65,0,0,0,3-7.6,1.46,1.46,0,0,1,.71-.76,1.36,1.36,0,0,1,1.84.61,1.47,1.47,0,0,1,.1,1.07,67,67,0,0,1-3.21,8,11.54,11.54,0,0,1-3,4,3.23,3.23,0,0,1-2.35.71,3.37,3.37,0,0,1-2.29-1.27,6.17,6.17,0,0,1-1.12-3.68,33.43,33.43,0,0,1,.25-4.54c.14-1.15.36-2.65.67-4.48s.47-2.88.51-3.11a1.4,1.4,0,0,1,.53-.95,1.34,1.34,0,0,1,1-.25,1.32,1.32,0,0,1,.92.51A1.39,1.39,0,0,1,53.33,26.29Zm.31-8.51a1.38,1.38,0,0,1-1,2.34,1.38,1.38,0,0,1,0-2.75A1.32,1.32,0,0,1,53.64,17.78Z" transform="translate(-12.22 -5.54)"/><path class="cls-2" d="M75.67,21.4a4.68,4.68,0,0,1-3.34-.69,5,5,0,0,1-2-2.58,5.35,5.35,0,0,1-.2-3.13,5.59,5.59,0,0,1,1.63-3,11.68,11.68,0,0,1,4.74-2.14A60.49,60.49,0,0,1,83,8.8c.17,0,2.36-.26,6.58-.66,2.38-.24,4-.45,5-.62.68-.17,1.92-.54,3.72-1.12L100,5.79l.62-.15.25-.1h.31a1.48,1.48,0,0,1,.41,0,1.55,1.55,0,0,1,.76.56,1.66,1.66,0,0,1,.1,1.68,1.87,1.87,0,0,1-.56.76,3.29,3.29,0,0,0-.3.26.69.69,0,0,1-.16.13s0,0,0,0,0,0-.05,0a29.93,29.93,0,0,0-4.39,8.67,41.43,41.43,0,0,0-.86,6.38c-.28,3.57-.51,6-.72,7.19a24.71,24.71,0,0,1-.89,3.54A17.09,17.09,0,0,1,93,38a10,10,0,0,1-2.45,2.81A12,12,0,0,1,87,42.76a9.08,9.08,0,0,1-3,.59A8.68,8.68,0,0,1,81.3,43a10.59,10.59,0,0,1-2.45-1.12,16.31,16.31,0,0,1-2.16-1.56,25,25,0,0,1-1.94-1.86,1.35,1.35,0,0,1-.41-1,1.28,1.28,0,0,1,.41-1,1.37,1.37,0,0,1,1-.39,1.22,1.22,0,0,1,1,.41,16.12,16.12,0,0,0,4.71,3.57,6.12,6.12,0,0,0,4.67.1,8.66,8.66,0,0,0,4.49-3.44,15.48,15.48,0,0,0,2-5.94c.2-1.15.44-3.47.71-6.94a36.5,36.5,0,0,1,1-6.88,28.32,28.32,0,0,1,3.47-7.55,20.05,20.05,0,0,1-2.7.72,48.19,48.19,0,0,1-5.26.71c-3.53.34-5.71.56-6.52.66a44.17,44.17,0,0,0-6.07,1,7.58,7.58,0,0,0-3.47,1.48,2.61,2.61,0,0,0-.89,1.53A2.76,2.76,0,0,0,73,17.21a1.9,1.9,0,0,0,2.3,1.43,1.5,1.5,0,0,1,1,.28,1.28,1.28,0,0,1,.53.9,1.3,1.3,0,0,1-.25,1A1.37,1.37,0,0,1,75.67,21.4Z" transform="translate(-12.22 -5.54)"/><path class="cls-2" d="M110.91,27.92a.16.16,0,0,1,.1,0,1.66,1.66,0,0,1,.46,1,3.32,3.32,0,0,1-.41,1.68l0,.25c-.2,1.09-.31,1.65-.31,1.69-.07.57-.12,1.15-.15,1.73s-.1,1-.1,1.12a10.42,10.42,0,0,0,.41,3.27,2.6,2.6,0,0,0,1.68,1.68,2,2,0,0,0,1.89-.51,8.59,8.59,0,0,0,1.83-2.81,31.94,31.94,0,0,0,1.38-3.92c.65-2,1-3.15,1.07-3.32a1.37,1.37,0,0,1,2.53-.1,1.25,1.25,0,0,1,0,1c0,.14-.36,1.21-1,3.21a37.89,37.89,0,0,1-1.53,4.29A10.62,10.62,0,0,1,116.21,42a4.49,4.49,0,0,1-4.38,1.07,5,5,0,0,1-3.52-3.42,4.06,4.06,0,0,1-.26-.81,8.83,8.83,0,0,1-.87,1.27,6.62,6.62,0,0,1-3.31,2.65c-1.6.48-3,0-4.34-1.58-1-1.12-1.37-2.83-1.27-5.15a18.65,18.65,0,0,1,1.38-6A11.62,11.62,0,0,1,103,25.12a4.83,4.83,0,0,1,5.61-.46,4.91,4.91,0,0,1,2.09,2,7.48,7.48,0,0,1,.26,1.12Zm-2.6,1.48c0-.23-.09-.66-.16-1.27a1.91,1.91,0,0,0-.1-.46c0-.07-.24-.26-.81-.56a2.2,2.2,0,0,0-2.61.2A8.66,8.66,0,0,0,102.19,31,14.6,14.6,0,0,0,101,36.19a4.81,4.81,0,0,0,.67,3.26c.51.58,1,.8,1.42.66A4.41,4.41,0,0,0,105,38.43a16.24,16.24,0,0,0,1.79-3.06,21.4,21.4,0,0,0,1.12-2.8c0-.14.07-.26.1-.36v-.36c.1-.88.2-1.6.31-2.14a.53.53,0,0,1,0-.26A0,0,0,0,0,108.31,29.4Z" transform="translate(-12.22 -5.54)"/><path class="cls-2" d="M123.05,25.58l-.51,1.58L122,28.74c-.13.41-.28.94-.45,1.58L121,32c-.11.45-.22,1-.34,1.56a13.82,13.82,0,0,0-.23,1.61c0,.47,0,1,0,1.47a10.1,10.1,0,0,0,.11,1.48q.3,2,1.47,2.4c.79.27,1.65-.1,2.61-1.12a7.88,7.88,0,0,0,.61-.72l.46-.61c.13-.2.28-.47.46-.81l.4-.77c.07-.1.23-.39.49-.87a8.75,8.75,0,0,0,.43-.86,11.6,11.6,0,0,1,.56-2.2,12.08,12.08,0,0,0,.46-2.24,1.4,1.4,0,0,1,.49-.94,1.22,1.22,0,0,1,1-.33,1.35,1.35,0,0,1,.94.48,1.27,1.27,0,0,1,.34,1,12.19,12.19,0,0,1-.62,2.81c-.2.75-.34,1.33-.4,1.73a1.4,1.4,0,0,1-.06.41v.1a7.79,7.79,0,0,0,.87,4.39c.41.68.85,1,1.33.92q2.23-.46,3.92-3.73a15.59,15.59,0,0,0,1.18-3,5.73,5.73,0,0,1-2-2.09,7.37,7.37,0,0,1-1-4.79,4.13,4.13,0,0,1,1-2.55,3.38,3.38,0,0,1,2.86-1.28,2.27,2.27,0,0,1,2.14,1.74,12.23,12.23,0,0,1,.46,2.34,16.78,16.78,0,0,1,0,3.93c-.07.31-.12.61-.16.92h.1a11.72,11.72,0,0,0,4.39-1.17,1.41,1.41,0,0,1,1.07,0,1.28,1.28,0,0,1,.74.74,1.34,1.34,0,0,1,0,1,1.27,1.27,0,0,1-.72.72A14.57,14.57,0,0,1,140.84,35a4.62,4.62,0,0,1-.76,0,18,18,0,0,1-1.38,3.37c-1.49,3-3.45,4.66-5.86,5.1a3.14,3.14,0,0,1-2.5-.41,5.18,5.18,0,0,1-1.68-1.78,8.39,8.39,0,0,1-.77-1.69,13,13,0,0,1-1.27,1.63c-1.74,1.87-3.57,2.5-5.51,1.89a4.56,4.56,0,0,1-2.22-1.68,6.49,6.49,0,0,1-1.15-2.91,14.81,14.81,0,0,1-.1-1.78c0-.62,0-1.21.08-1.79s.13-1.2.25-1.86.25-1.24.38-1.73l.51-1.82.51-1.68.51-1.63.51-1.38a1.44,1.44,0,0,1,.72-.81,1.31,1.31,0,0,1,1-.08,1.33,1.33,0,0,1,.79.66A1.3,1.3,0,0,1,123.05,25.58Zm15.3.61a2.51,2.51,0,0,0-1,.26,1.76,1.76,0,0,0-.92,1.47,3.77,3.77,0,0,0,1.48,4,3.34,3.34,0,0,0,.92.67v-.16a9.33,9.33,0,0,0,.15-4.28A10.68,10.68,0,0,0,138.35,26.19Z" transform="translate(-12.22 -5.54)"/><path class="cls-2" d="M156.81,27.92a.16.16,0,0,1,.1,0,1.66,1.66,0,0,1,.46,1,2.58,2.58,0,0,1-.16,1.07,2.46,2.46,0,0,1-.25.61l-.05.25c-.2,1.09-.31,1.65-.31,1.69-.07.57-.12,1.15-.15,1.73s-.1,1-.1,1.12a10.42,10.42,0,0,0,.41,3.27,2.6,2.6,0,0,0,1.68,1.68,2,2,0,0,0,1.89-.51,8.59,8.59,0,0,0,1.83-2.81,31.94,31.94,0,0,0,1.38-3.92c.64-2,1-3.15,1.07-3.32a1.33,1.33,0,0,1,1.76-.81,1.27,1.27,0,0,1,.76.71,1.21,1.21,0,0,1,0,1c0,.14-.36,1.21-1,3.21a37.89,37.89,0,0,1-1.53,4.29A10.62,10.62,0,0,1,162.11,42a4.5,4.5,0,0,1-4.39,1.07,5,5,0,0,1-3.51-3.42,4.06,4.06,0,0,1-.26-.81,8.83,8.83,0,0,1-.87,1.27,6.66,6.66,0,0,1-3.31,2.65c-1.6.48-3,0-4.34-1.58-1-1.12-1.37-2.83-1.27-5.15a18.65,18.65,0,0,1,1.38-6,11.62,11.62,0,0,1,3.31-4.89,4.83,4.83,0,0,1,5.61-.46,4.91,4.91,0,0,1,2.09,2,7.48,7.48,0,0,1,.26,1.12Zm-2.6,1.48c0-.23-.09-.66-.16-1.27a1.91,1.91,0,0,0-.1-.46c0-.07-.24-.26-.82-.56a2.19,2.19,0,0,0-2.6.2A8.66,8.66,0,0,0,148.09,31a14.6,14.6,0,0,0-1.18,5.15,4.76,4.76,0,0,0,.67,3.26c.51.58,1,.8,1.42.66a4.41,4.41,0,0,0,1.89-1.68,16.24,16.24,0,0,0,1.79-3.06,21.4,21.4,0,0,0,1.12-2.8c0-.14.07-.26.1-.36v-.36c.1-.88.2-1.6.31-2.14a.53.53,0,0,1,0-.26A0,0,0,0,0,154.21,29.4Z" transform="translate(-12.22 -5.54)"/><path class="cls-2" d="M164.56,29.91c0-.06.41-.95,1.12-2.65l.72-1.63a5.58,5.58,0,0,1,.25-.61.69.69,0,0,0,.15-.21.65.65,0,0,1,.11-.15,1.12,1.12,0,0,1,.4-.41,1.92,1.92,0,0,1,2.35.21,5.89,5.89,0,0,1,1.27,1.42,23.47,23.47,0,0,1,2,4.29A27.24,27.24,0,0,1,174.45,35a7.16,7.16,0,0,1,.1,4c-.13.34-.27.66-.4,1l.92.25c1.86.62,3.55-.2,5-2.44a34.36,34.36,0,0,0,3.17-7.09,1.23,1.23,0,0,1,.66-.77,1.3,1.3,0,0,1,1-.07,1.36,1.36,0,0,1,.8.69,1.32,1.32,0,0,1,.05,1.07,37,37,0,0,1-3.42,7.75q-3.42,5-8.16,3.52l-.87-.26-1.17-.41a5.53,5.53,0,0,1-1.94,1,8.41,8.41,0,0,1-8.67-3.57,3.38,3.38,0,0,1-.51-2.22,3,3,0,0,1,1.23-2.16,3.35,3.35,0,0,1,3.16-.56,8.07,8.07,0,0,1,2.6,1.32c.54.44,1.2,1,2,1.74l1.14,1.07.29.2a4.61,4.61,0,0,0,.5-1,6.41,6.41,0,0,0-.25-2.4,26.76,26.76,0,0,0-1.33-4.43,17.93,17.93,0,0,0-1.78-3.73l-.41.92c-.75,1.77-1.15,2.71-1.22,2.81a1.34,1.34,0,0,1-.79.69,1.37,1.37,0,0,1-1.66-1.92Zm4.54,10.66-.92-.81a12.36,12.36,0,0,0-1.78-1.53,4.49,4.49,0,0,0-1.64-.92.72.72,0,0,0-.71,0c-.24.2-.26.49-.05.87a4.63,4.63,0,0,0,2.29,1.88A4.87,4.87,0,0,0,169.1,40.57Z" transform="translate(-12.22 -5.54)"/><path class="cls-2" d="M182.46,41.54c0-1.33,0-2.09,0-2.29,0-.75.07-1.31.1-1.69a147.18,147.18,0,0,1,1-19.48A18.23,18.23,0,0,1,185,13.13a7.21,7.21,0,0,1,2.07-2.65,3,3,0,0,1,3.13-.3,3.52,3.52,0,0,1,2.4,3.36,11.06,11.06,0,0,1-.66,4.24,28.23,28.23,0,0,1-1.69,3.87,20.17,20.17,0,0,1-1.78,2.91A6.8,6.8,0,0,1,187,26a9.76,9.76,0,0,1-1.33.61c-.07,1.26-.12,2.58-.15,4l.56-.92a13.32,13.32,0,0,1,2.91-3.47A4.52,4.52,0,0,1,193,25q2.13.51,2.55,3.82a44,44,0,0,1,.05,5.15,21.43,21.43,0,0,0,.25,4.54c.21.85.53,1.29,1,1.33q1.68.2,3.42-2.7a24.48,24.48,0,0,0,1.53-3.37c.17-.48.41-1.24.71-2.3s.61-1.92.82-2.49a1.32,1.32,0,0,1,1.76-.82,1.33,1.33,0,0,1,.76.71,1.25,1.25,0,0,1,0,1c-.17.51-.41,1.3-.72,2.35a22,22,0,0,1-.81,2.55,24.19,24.19,0,0,1-1.74,3.77c-1.76,2.93-3.79,4.27-6.06,4-1.74-.2-2.84-1.36-3.32-3.47a22.94,22.94,0,0,1-.36-5.2,37.9,37.9,0,0,0-.05-4.79c-.13-1-.3-1.51-.51-1.48-.41-.1-1,.12-1.63.66a12,12,0,0,0-2.35,2.86,26.35,26.35,0,0,0-1.88,3.52,19.69,19.69,0,0,0-1.07,2.8V41.8a1.32,1.32,0,0,1-.41,1,1.36,1.36,0,0,1-2.14-.25A1.4,1.4,0,0,1,182.46,41.54Zm3.37-19.43a3.64,3.64,0,0,0,.4-.56,15.38,15.38,0,0,0,1.28-2.14,17.11,17.11,0,0,0,1.22-3,7.07,7.07,0,0,0,.46-2.76c0-.51-.19-.81-.46-.91-.51-.17-1,.29-1.48,1.37a12.85,12.85,0,0,0-1,3.68C186.08,19.14,185.93,20.58,185.83,22.11Z" transform="translate(-12.22 -5.54)"/></g></g></g></svg>