<svg xmlns="http://www.w3.org/2000/svg" width="22.944" height="22.944" viewBox="0 0 22.944 22.944">
  <path id="phone-solid" d="M22.1,1.092,17.44.017a1.082,1.082,0,0,0-1.232.623L14.056,5.658a1.073,1.073,0,0,0,.309,1.255l2.716,2.223A16.608,16.608,0,0,1,9.14,17.076L6.918,14.361a1.074,1.074,0,0,0-1.255-.309L.644,16.2a1.088,1.088,0,0,0-.627,1.237L1.092,22.1a1.075,1.075,0,0,0,1.049.833A20.79,20.79,0,0,0,22.933,2.141,1.074,1.074,0,0,0,22.1,1.092Z" transform="translate(0.01 0.011)" fill="#5d5d5d"/>
</svg>
