<svg xmlns="http://www.w3.org/2000/svg" width="65.545" height="14.304" viewBox="0 0 65.545 14.304">
  <g id="Shape_17" data-name="Shape 17" transform="translate(-1352 -758.992)">
    <g id="Group_35" data-name="Group 35" transform="translate(1352 766.374)">
      <path id="Path_54" data-name="Path 54" d="M1410.99,803.081c-2.207,0-3.294-1.579-4.168-2.847-.841-1.221-1.366-1.911-2.387-1.911s-1.546.691-2.387,1.911c-.874,1.269-1.961,2.847-4.168,2.847s-3.294-1.579-4.168-2.847c-.841-1.221-1.366-1.911-2.387-1.911s-1.546.691-2.386,1.911c-.874,1.269-1.961,2.847-4.168,2.847s-3.294-1.579-4.168-2.847c-.841-1.221-1.366-1.911-2.386-1.911s-1.546.691-2.386,1.911c-.874,1.269-1.961,2.847-4.168,2.847s-3.294-1.579-4.168-2.847c-.841-1.221-1.366-1.911-2.386-1.911s-1.546.691-2.387,1.911c-.874,1.269-1.961,2.847-4.168,2.847s-3.294-1.579-4.168-2.847c-.841-1.221-1.366-1.911-2.386-1.911v-2.163c2.207,0,3.294,1.579,4.168,2.848.84,1.221,1.366,1.911,2.386,1.911s1.546-.691,2.386-1.911c.874-1.269,1.961-2.848,4.168-2.848s3.294,1.579,4.168,2.848c.841,1.221,1.366,1.911,2.386,1.911s1.546-.691,2.386-1.911c.874-1.269,1.961-2.848,4.168-2.848s3.294,1.579,4.168,2.848c.84,1.221,1.366,1.911,2.386,1.911s1.546-.691,2.386-1.911c.874-1.269,1.961-2.848,4.168-2.848s3.294,1.579,4.168,2.848c.841,1.221,1.366,1.911,2.386,1.911s1.546-.691,2.386-1.911c.874-1.269,1.961-2.848,4.168-2.848s3.295,1.579,4.168,2.848c.841,1.221,1.366,1.911,2.387,1.911s1.546-.691,2.387-1.911c.873-1.269,1.961-2.848,4.168-2.848v2.163c-1.021,0-1.546.691-2.387,1.911C1414.284,801.5,1413.2,803.081,1410.99,803.081Z" transform="translate(-1352 -796.159)" fill="#c3c3c3"/>
    </g>
    <g id="Group_36" data-name="Group 36" transform="translate(1352 758.992)">
      <path id="Path_55" data-name="Path 55" d="M1410.99,765.914c-2.207,0-3.294-1.579-4.168-2.847-.841-1.221-1.366-1.911-2.387-1.911s-1.546.691-2.387,1.911c-.874,1.269-1.961,2.847-4.168,2.847s-3.294-1.579-4.168-2.847c-.841-1.221-1.366-1.911-2.387-1.911s-1.546.691-2.386,1.911c-.874,1.269-1.961,2.847-4.168,2.847s-3.294-1.579-4.168-2.847c-.841-1.221-1.366-1.911-2.386-1.911s-1.546.691-2.386,1.911c-.874,1.269-1.961,2.847-4.168,2.847s-3.294-1.579-4.168-2.847c-.841-1.221-1.366-1.911-2.386-1.911s-1.546.691-2.387,1.911c-.874,1.269-1.961,2.847-4.168,2.847s-3.294-1.579-4.168-2.847c-.841-1.221-1.366-1.911-2.386-1.911v-2.163c2.207,0,3.294,1.579,4.168,2.847.84,1.221,1.366,1.911,2.386,1.911s1.546-.691,2.386-1.911c.874-1.269,1.961-2.847,4.168-2.847s3.294,1.579,4.168,2.847c.841,1.221,1.366,1.911,2.386,1.911s1.546-.691,2.386-1.911c.874-1.269,1.961-2.847,4.168-2.847s3.294,1.579,4.168,2.847c.84,1.221,1.366,1.911,2.386,1.911s1.546-.691,2.386-1.911c.874-1.269,1.961-2.847,4.168-2.847s3.294,1.579,4.168,2.847c.841,1.221,1.366,1.911,2.386,1.911s1.546-.691,2.386-1.911c.874-1.269,1.961-2.847,4.168-2.847s3.295,1.579,4.168,2.847c.841,1.221,1.366,1.911,2.387,1.911s1.546-.691,2.387-1.911c.873-1.269,1.961-2.847,4.168-2.847v2.163c-1.021,0-1.546.691-2.387,1.911C1414.284,764.335,1413.2,765.914,1410.99,765.914Z" transform="translate(-1352 -758.992)" fill="#c3c3c3"/>
    </g>
  </g>
</svg>
