<?xml version="1.0" encoding="utf-8"?>
<!-- Generator: Adobe Illustrator 23.0.4, SVG Export Plug-In . SVG Version: 6.00 Build 0)  -->
<svg version="1.1" id="Layer_1" xmlns="http://www.w3.org/2000/svg" xmlns:xlink="http://www.w3.org/1999/xlink" x="0px" y="0px"
	 viewBox="0 0 24 24" style="enable-background:new 0 0 24 24;" xml:space="preserve">
<style type="text/css">
	.st0{fill:#585858;}
</style>
<path id="stack-overflow-brands" class="st0" d="M17.1,14.8l-6.2-1.3L7,12.7l-0.4,2l10.1,2.1L17.1,14.8z M19.7,10.4l-7.9-6.6
	l-1.3,1.6l7.9,6.6L19.7,10.4z M18.1,12.4L8.8,8L7.9,9.9l9.3,4.3L18.1,12.4z M15.6,0.5L14,1.7l6.1,8.3l1.7-1.2L15.6,0.5z M16.7,17.4
	H6.4v2h10.3L16.7,17.4z M18.7,21.5H4.3v-6.2H2.3v8.2h18.5v-8.2h-2.1L18.7,21.5z"/>
</svg>
