<svg xmlns="http://www.w3.org/2000/svg" width="26.162" height="21.248" viewBox="0 0 26.162 21.248">
  <path id="twitter-brands_1_" data-name="twitter-brands (1)" d="M23.473,53.377c.017.232.017.465.017.7A15.151,15.151,0,0,1,8.234,69.33,15.152,15.152,0,0,1,0,66.923a11.091,11.091,0,0,0,1.295.066A10.738,10.738,0,0,0,7.951,64.7,5.371,5.371,0,0,1,2.938,60.98a6.763,6.763,0,0,0,1.013.083,5.671,5.671,0,0,0,1.411-.183,5.363,5.363,0,0,1-4.3-5.262v-.066a5.4,5.4,0,0,0,2.424.681,5.37,5.37,0,0,1-1.66-7.171,15.241,15.241,0,0,0,11.056,5.611,6.053,6.053,0,0,1-.133-1.228,5.367,5.367,0,0,1,9.279-3.669,10.557,10.557,0,0,0,3.4-1.295,5.347,5.347,0,0,1-2.357,2.955,10.749,10.749,0,0,0,3.088-.83A11.526,11.526,0,0,1,23.473,53.377Z" transform="translate(0 -48.082)" fill="#585858"/>
</svg>
