<svg xmlns="http://www.w3.org/2000/svg" class="feather" width="24" height="24" viewBox="0 0 24 24" style="enable-background:new 0 0 24 24;" xml:space="preserve"><style type="text/css">.st0{fill:#585858;}</style><path id="twitter-brands_1_" class="st0" d="M21.5,7.1c0,0.2,0,0.4,0,0.6c0.1,7.7-6.1,13.9-13.8,14c-0.1,0-0.1,0-0.2,0c-2.7,0-5.3-0.8-7.6-2.2c0.4,0,0.8,0.1,1.2,0.1c2.2,0,4.4-0.7,6.1-2.1c-2.1,0-4-1.4-4.6-3.4c0.3,0,0.6,0.1,0.9,0.1c0.4,0,0.9-0.1,1.3-0.2C2.6,13.5,1,11.5,1,9.2V9.1c0.7,0.4,1.4,0.6,2.2,0.6C1,8.3,0.4,5.4,1.7,3.1c2.5,3.1,6.2,4.9,10.1,5.2c-0.1-0.4-0.1-0.7-0.1-1.1c0-2.7,2.2-4.9,4.9-4.9c1.4,0,2.7,0.6,3.6,1.6c1.1-0.2,2.2-0.6,3.1-1.2c-0.4,1.1-1.1,2.1-2.2,2.7c1-0.1,1.9-0.4,2.8-0.8C23.3,5.5,22.5,6.4,21.5,7.1z"/></svg>